<svg xmlns="http://www.w3.org/2000/svg" xmlns:xlink="http://www.w3.org/1999/xlink" width="310" height="103">
  <defs>
    <linearGradient id="a" x1="92.61" x2="107.6" y1="117.11" y2="145.29" gradientTransform="matrix(1 0 0 -1 0 161.98)" gradientUnits="userSpaceOnUse">
      <stop offset="0" stop-color="#06f"/>
      <stop offset=".2" stop-color="#1677ff"/>
      <stop offset="1" stop-color="#04a6ff"/>
    </linearGradient>
    <linearGradient xlink:href="#a" id="c" x1="51.81" x2="125.49" y1="70" y2="96.81" gradientTransform="translate(-50.03 -16.73)"/>
    <linearGradient xlink:href="#a" id="d" x1="71.1" x2="62.92" y1="108.25" y2="138.8" gradientTransform="translate(-50.03 -16.73)"/>
    <linearGradient xlink:href="#a" id="b" x1="92.61" x2="107.6" y1="117.11" y2="145.29" gradientTransform="matrix(1 0 0 -1 -50.03 145.25)" gradientUnits="userSpaceOnUse"/>
  </defs>
  <path fill="url(#b)" d="M45.13 29.4c-.66-.14-1.27-.62-1.55-1.48-.25-.75-.17-1.57-.03-2.35.72-4.02 1.37-8.06 2.31-12.04.76-3.23 1.83-6.43 3.8-9.15C51.07 2.43 53.12.75 55.49.16c4.05-1.01 5.73 2.94 4.32 6.29-1.19 2.83-4.06 4.27-6.17 6.3-3.86 3.72-5.06 10-6.17 15.01-.29 1.28-1.37 1.84-2.34 1.64z"/>
  <path fill="url(#c)" d="M37.67 24.27c-1.41-.06-2.79-.25-4.09-1-1.23-.7-2.85-1.95-4.37-1.42-1.67.58-2.31 2.9-3.61 4.03-1.82 1.6-4.04 2.46-6.09 3.69-1.78 1.06-3.49 2.21-5.09 3.52-3.19 2.6-5.97 5.71-8.2 9.16C1.89 48.96-.28 56.94.03 64.91c.87 22.2 20.12 39.36 42.55 37.45 20.03-1.7 35.69-18.59 35.83-38.66.05-6.79-1.67-13.55-5-19.46-3.22-5.72-7.9-10.6-13.47-14.07a39.387 39.387 0 0 0-19.03-5.88c-1.08-.05-2.17 0-3.23-.04z"/>
  <path fill="url(#d)" d="M10.72 9.64c.36-1.07.93-2.05 1.77-2.74a3.855 3.855 0 0 1 5.39.52c3.2 3.83.78 9.69.65 14.1-.11 3.71 1.14 7.55 2.64 10.83.29.63.77 1.29.86 2.01.15 1.22-.38 2.22-1.32 2.69-1.6.79-2.62-.89-3.28-2.08-1.52-2.76-2.82-5.72-4.05-8.62-1.26-2.99-2.33-6.08-2.86-9.29-.09-.58-.17-1.16-.23-1.74-.05-.53-.09-1.06-.11-1.58-.05-1.28.09-2.77.54-4.1z"/>
  <path fill="#fff" d="M75.55 58.37C74.29 43.74 62.6 31.9 49.49 31.92c-13.07.02-22.63 11.83-21.38 26.38 1.25 14.55 12.84 26.4 25.93 26.47 13.13.06 22.78-11.75 21.51-26.39zm-6.84 16.58c-3.37 3.78-7.99 5.94-12.97 6.09-5.62.17-11.14-2.11-15.57-6.42-4.44-4.32-7.23-10.14-7.87-16.43-.67-6.66 1.23-13.05 5.26-17.54 3.38-3.77 7.98-5.93 13-6.08h.59c5.52 0 10.94 2.4 15.26 6.75s7.02 10.15 7.59 16.3c.62 6.57-1.32 12.89-5.29 17.33z"/>
  <path d="M146.99 77.56h9.28v21.43s.98.23 2.37.23c1.39 0 2.37-.22 2.37-.23V77.56h9.28v-4.12h-23.31v4.12zm-8.18-4.15v18.55c-4.39-7.07-8.79-13.46-13.07-18.55 0 0-.91-.22-2.2-.22s-2.2.22-2.2.22v25.58s.9.22 2.19.22 2.18-.22 2.19-.22V79.17c4.68 6.43 9.07 13.07 13.01 19.82 0 0 .92.22 2.23.22s2.22-.22 2.22-.22V73.41s-.9-.22-2.19-.22-2.19.22-2.19.22zm52.15 3.67c3.6 0 6.3 1.31 8.54 4.41l3.29-2.43c-2.95-4.08-6.18-6.07-12.19-6.07-7.34 0-13.01 5.66-13.01 13.33s5.44 13.22 12.19 13.22c1.9 0 3.62-.41 5.06-1.02 1.32-.54 2.07-.94 2.92-1.52.36-.24.77-.53 1.04-.43.23.08.24.33.24.61v1.78s.7.23 1.7.23 1.7-.28 1.7-.28V85.28h-11.46v3.64h7.52c-.02 2.73-2.49 6.55-8.13 6.55-5.33 0-8.44-4.23-8.44-9.14 0-5.54 4.37-9.24 9.01-9.24zm109.96-3.6h-11.39v25.53s.92.22 2.24.22c1.32 0 2.24-.22 2.24-.22v-8.26h7.06c5.3 0 8.88-3.43 8.88-8.73 0-5.3-3.52-8.54-9.03-8.54zm-.75 13.28h-6.16v-9.29h6.16c3.85 0 5.51 1.27 5.51 4.67s-2.07 4.63-5.51 4.63zm-20.3-13.28v15.17c0 4.11-2.43 6.72-6.45 6.72s-6.45-2.6-6.45-6.72V73.48s-.92-.23-2.24-.23c-1.32 0-2.23.23-2.23.23V88.8c0 7.47 4.79 10.74 10.92 10.74s10.92-3.27 10.92-10.74V73.48s-.93-.23-2.23-.23c-1.3 0-2.24.22-2.24.23zM224.18 90.1c-1.34-1.06-2.53-1.26-2.49-1.53.03-.23.66-.12 1.78-.46 3.47-1 5.53-3.61 5.53-7.03 0-6.01-4.16-7.65-10.17-7.65H207.8v25.58s.92.22 2.23.22 2.23-.22 2.23-.22V89.3h2.87c2.05 0 3.58.26 4.69 1.09 1.18.9 2.12 2.13 3.36 4.07.73 1.13 2.53 4.54 2.54 4.55 0 0 1.06.22 2.61.22 1.55 0 2.54-.35 2.54-.35-2.91-4.63-4.47-7.05-6.69-8.8zm-6.07-4.59h-5.86v-8.3h6.65c3.85 0 5.65.75 5.65 3.89 0 3.33-2.59 4.42-6.44 4.42zm27.32-12.52c-7.33 0-13.28 5.94-13.28 13.28 0 7.34 5.94 13.28 13.28 13.28 7.34 0 13.28-5.94 13.28-13.28 0-7.34-5.94-13.28-13.28-13.28zm0 22.12c-4.88 0-8.84-3.96-8.84-8.84s3.96-8.84 8.84-8.84 8.84 3.96 8.84 8.84-3.96 8.84-8.84 8.84zM102.46 73.35C98.71 81.27 95.49 89.88 92.8 99c0 0 .92.22 2.31.22 1.31 0 2.24-.22 2.25-.23.84-2.98 2.2-7 2.2-7s3.54-.42 5.91-.22c2.79.23 4.22.63 5.54 1.22.58.26.89.44 1.04.91.31.96.87 2.79 1.52 5.08 0 0 .95.23 2.29.23s2.26-.21 2.26-.22c-2.63-9.12-5.81-17.73-9.63-25.65h-6.03zm3.49 15.18c-1.9 0-4.12.32-5.46.77 1.58-4.86 4.15-10.85 4.6-11.84.13-.29.26-.37.39-.37.12 0 .26.07.37.32.48 1.05 3.05 7.04 4.56 11.54-1.04-.16-2.48-.41-4.45-.41zm74.8-27.07c-3.66-3.07-6.83-5.96-9.49-9 1.37-1.81 2.58-3.71 3.63-5.74 2.71-5.26 2.94-10.9 2.94-16.22h-4.18c0 4.81-.19 9.87-2.48 14.3a34.27 34.27 0 0 1-2.6 4.25 34.27 34.27 0 0 1-2.6-4.25c-2.29-4.43-2.48-9.5-2.48-14.3h-4.18c0 5.09.23 10.95 2.94 16.22 1.05 2.03 2.26 3.92 3.63 5.74-2.32 2.66-5.05 5.21-8.15 7.86v-4.61h-4v3.5c0 .23-.18.41-.41.41h-2.78V52.9h1.83c2.75 0 4.56-1.81 4.56-4.56v-16.9h-6.4V26.1h-4v5.34h-6.22V52.9h6.22v6.72h-6.29v4.18h14.23c1.28 0 2.23-.49 2.77-1.34l1.85 2.2c3.61-3.03 6.78-5.91 9.49-8.94 2.71 3.03 5.89 5.91 9.49 8.94l2.69-3.2zm-30.22-26.1h2.39v13.08c0 .31-.25.56-.56.56h-1.83V35.37zm-4 13.63h-2.21V35.36h2.21zm20.63-11.06 3.29-.42c-.04-5.84-.84-11.44-.87-11.68l-3.96.57s.03.17.06.44c.24 1.21 1.14 6.03 1.49 11.09zm-54.45 22.62v-4.77h13.83v-4H112.7v3.94h-4v3.5c0 .23-.18.41-.41.41h-2.78v-6.72h1.83c2.75 0 4.56-1.81 4.56-4.56v-16.9h-6.4v-5.34h-4v5.34h-6.22v21.46h6.22v6.72h-6.29v4.18h14.23c2.04 0 3.26-1.23 3.26-3.26zm-7.2-25.19h2.39v13.08c0 .31-.25.56-.56.56h-1.83V35.37zm-4 13.63H99.3V35.36h2.21zm32.4 9.09c.84-2.31.96-7.47.96-12.31v-1.74h-5.35l1.09-16.46h-17.47v3.74h13.2l-.83 12.72h-6.83l.76-10.7h-3.84l-1.05 14.44h16.31c-.05 4.78-.29 7.6-.71 8.75-.6 1.64-1.65 3.46-5.66 3.46h-6.26v3.83h6.43c4.88 0 7.81-1.82 9.25-5.73zm102.67-7.2 1.39 3.75c5.85-2.17 11.54-6.45 14.82-10.92v7.58c0 1.56-1.37 2.83-3.04 2.83h-3.6v3.83h3.95c3.89 0 6.69-2.71 6.69-6.48v-9.95h2.91v-3.83h-2.91v-4.11h-4v4.11h-15.51v3.83h12.4c-2.89 3.74-8.14 7.53-13.09 9.36zm29.99 6.38V27.12h-36.26v37.29h29.09c4.66 0 7.16-2.5 7.16-7.16zm-4 0c0 1.98-1.18 3.16-3.16 3.16h-25.09V31.13h28.25zm-40.65 6.75.72-3.76c-5.09-.97-8.08-3.13-9.76-4.91h9.89V51.6h-16.64v-1.93h15.37v-3.56h-14.66v-1.7h13.66v-3.47h-13.66v-1.88h13.66v-3.47h-13.66V33.8h14.66v-3.56h-14.12c.89-.56 1.62-1.27 2.14-2.06.44-.7.68-1.13.7-1.17l-3.51-1.92s-.34.66-1.31 2.07c-1.82 2.54-3.42 3.08-6.19 3.08h-4.43c1.33-1.86 2.02-3.11 2.09-3.23l-3.51-1.92c-.03.06-3.38 6.09-9.95 11.59l2.57 3.07c.67-.56 1.3-1.12 1.9-1.69v7.81c0 2.57 1.22 3.78 3.78 3.78h10.49v1.93h-16.64v3.74h9.89c-1.68 1.78-4.68 3.93-9.76 4.91l.72 3.76c8.6-1.65 12.41-6.32 13.82-8.66h1.97v9.06h4v-9.06h1.97c1.41 2.34 5.22 7.02 13.82 8.66zm-19.09-17.89h-10.31c-.66 0-.76-.1-.76-.76v-.94h11.06v1.7zm0-5.17h-11.06v-1.88h11.06zm0-5.34h-11.06v-1.57c.06-.08.13-.15.19-.22h10.88v1.79z"/>
</svg>
